<svg width="22" height="21" viewBox="0 0 22 21" fill="none" xmlns="http://www.w3.org/2000/svg">
  <path d="M8.51442 7.68749C8.71523 7.11663 9.11161 6.63525 9.63334 6.32863C10.1551 6.02201 10.7685 5.90992 11.3649 6.01223C11.9614 6.11453 12.5024 6.42463 12.8921 6.88759C13.2818 7.35055 13.4951 7.9365 13.4942 8.54166C13.4942 10.25 10.9317 11.1042 10.9317 11.1042M11 14.5208H11.0086M19.5417 10.25C19.5417 14.9674 15.7175 18.7917 11 18.7917C6.28261 18.7917 2.45837 14.9674 2.45837 10.25C2.45837 5.53256 6.28261 1.70833 11 1.70833C15.7175 1.70833 19.5417 5.53256 19.5417 10.25Z" stroke="white" stroke-width="2" stroke-linecap="round" stroke-linejoin="round" />
</svg>